<?xml version="1.0" encoding="UTF-8" standalone="no"?>
<!DOCTYPE svg PUBLIC "-//W3C//DTD SVG 1.1//EN" "http://www.w3.org/Graphics/SVG/1.1/DTD/svg11.dtd">
<svg width="100%" height="100%" viewBox="0 0 627 468" version="1.1" xmlns="http://www.w3.org/2000/svg" xmlns:xlink="http://www.w3.org/1999/xlink" xml:space="preserve" xmlns:serif="http://www.serif.com/" style="fill-rule:evenodd;clip-rule:evenodd;stroke-linejoin:round;stroke-miterlimit:2;">
    <g transform="matrix(1,0,0,1,-201,-1094)">
        <g>
            <g transform="matrix(1.86525,0,0,0.584808,-225.351,-40.6645)">
                <path d="M434,2264.29L474,2154.18L514,2264.29L514,2353.89L434,2353.89L434,2264.29Z"/>
            </g>
            <g transform="matrix(-1.10637,-1.35491e-16,1.46666e-16,-1.19762,1019.07,3965.02)">
                <rect x="427" y="2195.29" width="79" height="158.606"/>
            </g>
            <g transform="matrix(1.23109,0,0,1.23109,-507.32,-1538.55)">
                <path d="M700.062,2296.6C697.2,2298.99 693.179,2300.04 689.312,2299.07C683.318,2297.56 679.949,2291.75 681.793,2286.11C677.199,2290.24 670.004,2290.25 665.735,2286.12C661.466,2281.99 661.731,2275.28 666.325,2271.15C660.212,2272.67 654.112,2269.32 652.713,2263.67C651.313,2258.03 655.139,2252.22 661.252,2250.7C655.258,2249.2 651.889,2243.39 653.733,2237.74C655.578,2232.1 661.941,2228.74 667.935,2230.25C663.666,2226.12 663.93,2219.41 668.524,2215.28C673.118,2211.14 680.314,2211.14 684.582,2215.27C683.183,2209.62 687.009,2203.81 693.122,2202.3C699.235,2200.78 705.334,2204.13 706.734,2209.77C708.578,2204.13 714.942,2200.77 720.935,2202.28C726.929,2203.78 730.298,2209.59 728.454,2215.24C733.048,2211.1 740.243,2211.1 744.512,2215.22C748.781,2219.35 748.517,2226.06 743.923,2230.19C750.036,2228.68 756.135,2232.03 757.535,2237.67C758.934,2243.31 755.108,2249.12 748.995,2250.64C754.989,2252.15 758.358,2257.95 756.514,2263.6C754.67,2269.24 748.306,2272.6 742.312,2271.09C746.581,2275.22 746.317,2281.93 741.723,2286.06C737.129,2290.2 729.934,2290.2 725.665,2286.08C727.065,2291.72 723.238,2297.53 717.125,2299.05C714.714,2299.64 712.305,2299.49 710.185,2298.73L710.185,2334.89L700.062,2334.89L700.062,2296.6Z"/>
            </g>
            <g transform="matrix(1,0,0,1,-127.319,-933)">
                <path d="M385.681,2418.05L385.681,2412.71C385.681,2383.11 393.681,2370.58 411.015,2370.58L411.948,2370.58C427.548,2370.58 434.081,2379.78 434.081,2401.25L443.948,2401.25L443.948,2397.51C443.948,2374.05 433.281,2361.91 411.148,2361.91C387.281,2361.91 375.815,2376.71 375.815,2412.71L375.815,2418.05C375.815,2454.05 387.281,2468.85 411.148,2468.85C433.281,2468.85 443.948,2456.71 443.948,2434.85L443.948,2433.51L434.081,2433.51C434.081,2450.71 427.548,2460.18 411.948,2460.18L411.015,2460.18C393.548,2460.18 385.681,2447.65 385.681,2418.05Z" style="fill-rule:nonzero;"/>
                <path d="M460.348,2467.38L469.681,2467.38L469.681,2396.71L460.348,2396.71L460.348,2467.38ZM471.015,2368.05L459.015,2368.05L459.015,2380.05L471.015,2380.05L471.015,2368.05Z" style="fill-rule:nonzero;"/>
                <path d="M504.081,2396.71L504.081,2376.71L494.748,2376.71L494.748,2396.71L483.548,2396.71L483.548,2405.11L494.748,2405.11L494.748,2447.78C494.748,2463.11 503.415,2468.85 515.415,2468.85C521.015,2468.85 524.215,2467.78 525.281,2467.38L525.281,2459.25C524.215,2459.78 520.615,2460.45 517.681,2460.45C508.748,2460.45 504.081,2457.78 504.081,2446.58L504.081,2405.11L526.615,2405.11L526.615,2396.71L504.081,2396.71Z" style="fill-rule:nonzero;"/>
                <path d="M565.948,2454.45L545.815,2396.71L535.815,2396.71L561.148,2464.71L550.081,2494.05L560.881,2494.05L570.881,2464.71L596.215,2396.71L586.215,2396.71L565.948,2454.45Z" style="fill-rule:nonzero;"/>
                <path d="M644.481,2363.38L644.481,2433.78C644.481,2451.91 639.681,2460.18 627.415,2460.18C615.015,2460.18 610.215,2451.91 610.215,2433.51L601.148,2433.51L601.148,2435.38C601.148,2456.58 607.681,2468.85 627.548,2468.85C647.015,2468.85 654.081,2456.18 654.081,2435.38L654.081,2363.38L644.481,2363.38Z" style="fill-rule:nonzero;"/>
                <path d="M701.681,2418.05C719.815,2420.58 727.415,2426.71 727.415,2438.98L727.415,2440.18C727.415,2452.85 717.948,2460.18 703.815,2460.18L702.881,2460.18C688.881,2460.18 679.015,2451.78 679.015,2433.51L669.415,2433.51L669.415,2434.85C669.415,2456.31 681.281,2468.85 703.281,2468.85C724.081,2468.85 737.281,2457.91 737.281,2439.51L737.281,2438.18C737.281,2422.18 727.948,2412.98 705.281,2409.91C686.215,2407.25 680.481,2400.71 680.481,2389.65L680.481,2388.58C680.481,2377.38 690.081,2370.58 702.748,2370.58L703.681,2370.58C719.548,2370.58 726.481,2378.85 726.481,2398.58L736.081,2398.58L736.081,2395.38C736.081,2373.91 726.481,2361.91 703.281,2361.91C683.548,2361.91 670.615,2372.45 670.615,2389.78L670.615,2391.11C670.615,2404.85 679.015,2414.98 701.681,2418.05Z" style="fill-rule:nonzero;"/>
                <path d="M786.615,2468.85C810.481,2468.85 822.348,2454.05 822.348,2418.05L822.348,2412.71C822.348,2376.71 810.481,2361.91 786.615,2361.91C762.881,2361.91 751.015,2376.71 751.015,2412.71L751.015,2418.05C751.015,2454.05 762.881,2468.85 786.615,2468.85ZM786.215,2460.18C768.748,2460.18 760.881,2447.65 760.881,2418.05L760.881,2412.71C760.881,2383.11 768.748,2370.58 786.215,2370.58L787.148,2370.58C804.615,2370.58 812.481,2383.11 812.481,2412.71L812.481,2418.05C812.481,2447.65 804.615,2460.18 787.148,2460.18L786.215,2460.18Z" style="fill-rule:nonzero;"/>
                <path d="M907.948,2363.38L898.881,2363.38L898.881,2426.98L899.281,2451.11L850.215,2363.38L839.815,2363.38L839.815,2467.38L848.881,2467.38L848.881,2403.78L848.348,2379.65L897.548,2467.38L907.948,2467.38L907.948,2363.38Z" style="fill-rule:nonzero;"/>
            </g>
            <g transform="matrix(-3.76697,0,0,2.60714,5455.3,-2447.61)">
                <path d="M1253.5,1358.78L1253.04,1358.78C1245.45,1358.78 1238.92,1361.7 1238.92,1373.37L1238.92,1402.65C1238.92,1411.63 1234.6,1413.62 1228.42,1413.62L1228.42,1415.95C1234.6,1415.95 1238.92,1417.93 1238.92,1426.92L1238.92,1456.2C1238.92,1467.87 1245.45,1470.78 1253.04,1470.78L1253.5,1470.78L1253.5,1468.45C1246.27,1468.45 1241.25,1466.12 1241.25,1455.62L1241.25,1426.8C1241.25,1419.68 1238.45,1416.18 1234.49,1414.78C1238.45,1413.38 1241.25,1410 1241.25,1402.77L1241.25,1373.95C1241.25,1363.45 1246.27,1361.12 1253.5,1361.12L1253.5,1358.78Z" style="fill-rule:nonzero;"/>
            </g>
            <g transform="matrix(3.76697,0,0,2.60714,-4426.04,-2447.61)">
                <path d="M1253.5,1358.78L1253.04,1358.78C1245.45,1358.78 1238.92,1361.7 1238.92,1373.37L1238.92,1402.65C1238.92,1411.63 1234.6,1413.62 1228.42,1413.62L1228.42,1415.95C1234.6,1415.95 1238.92,1417.93 1238.92,1426.92L1238.92,1456.2C1238.92,1467.87 1245.45,1470.78 1253.04,1470.78L1253.5,1470.78L1253.5,1468.45C1246.27,1468.45 1241.25,1466.12 1241.25,1455.62L1241.25,1426.8C1241.25,1419.68 1238.45,1416.18 1234.49,1414.78C1238.45,1413.38 1241.25,1410 1241.25,1402.77L1241.25,1373.95C1241.25,1363.45 1246.27,1361.12 1253.5,1361.12L1253.5,1358.78Z" style="fill-rule:nonzero;"/>
            </g>
        </g>
    </g>
</svg>
