<?xml version="1.0" standalone="no"?>
<!DOCTYPE svg PUBLIC "-//W3C//DTD SVG 20010904//EN"
 "http://www.w3.org/TR/2001/REC-SVG-20010904/DTD/svg10.dtd">
<svg version="1.0" xmlns="http://www.w3.org/2000/svg"
 width="589.000000pt" height="589.000000pt" viewBox="0 0 589.000000 589.000000"
 preserveAspectRatio="xMidYMid meet">
<metadata>
Created by potrace 1.11, written by Peter Selinger 2001-2013
</metadata>
<g transform="translate(0.000000,589.000000) scale(0.100000,-0.100000)"
fill="#000000" stroke="none">
<path d="M2927 5170 c-8 -19 -29 -66 -47 -105 -97 -212 -147 -320 -186 -404
-24 -51 -44 -95 -44 -97 0 -1 -21 -47 -46 -101 -61 -130 -80 -172 -242 -528
-28 -60 -67 -146 -87 -190 -21 -44 -57 -123 -80 -175 -24 -52 -61 -133 -83
-180 -22 -47 -74 -159 -115 -250 -41 -91 -88 -194 -105 -230 -16 -36 -53 -117
-82 -180 -29 -63 -57 -121 -62 -127 -13 -16 4 -23 162 -69 69 -19 144 -42 168
-50 50 -17 62 -17 62 -4 0 10 13 39 118 265 35 77 76 165 89 195 14 30 36 78
48 105 26 57 76 167 110 240 13 28 49 106 80 175 32 69 70 153 86 188 16 34
43 92 60 130 17 37 43 94 59 127 15 33 45 98 66 145 22 46 50 109 64 139 l25
53 29 -63 c16 -35 44 -95 62 -134 17 -38 131 -286 252 -550 121 -264 235 -514
254 -555 19 -41 75 -163 123 -270 49 -107 90 -196 91 -198 1 -2 57 13 125 33
216 64 254 75 256 75 9 0 -1 28 -31 92 -35 76 -138 300 -274 598 -44 96 -97
211 -117 255 -21 44 -61 132 -90 195 -80 176 -263 578 -295 645 -35 75 -81
174 -110 240 -13 28 -39 86 -60 130 -20 44 -63 139 -96 210 -32 72 -73 159
-90 195 l-31 65 -16 -35z"/>
<path d="M969 2543 c0 -10 -1 -331 -1 -714 0 -680 0 -696 20 -735 28 -55 58
-83 111 -107 46 -20 57 -20 1846 -20 1789 0 1800 0 1846 20 55 24 85 54 110
108 18 38 19 79 19 753 0 675 -1 713 -17 708 -29 -9 -320 -95 -443 -131 -63
-18 -155 -45 -205 -60 -156 -46 -327 -96 -410 -120 -44 -13 -264 -78 -490
-145 l-409 -120 -311 90 c-170 50 -323 96 -340 101 -40 13 -402 119 -440 129
-16 5 -54 16 -84 25 -30 9 -62 18 -70 20 -9 2 -45 13 -81 24 -107 33 -413 122
-439 127 -14 3 -28 7 -33 10 -5 3 -37 14 -72 24 -35 10 -73 21 -85 25 -16 5
-21 2 -22 -12z m3551 -845 l0 -333 -1575 0 -1575 0 -1 48 c-4 338 0 602 9 605
6 2 55 -10 109 -27 54 -16 152 -46 218 -65 141 -41 817 -239 890 -261 28 -8
117 -35 199 -59 l150 -44 85 25 c47 14 100 29 116 33 33 9 463 136 590 175 44
13 112 33 150 44 177 50 619 182 623 186 3 3 7 5 9 5 2 0 3 -150 3 -332z"/>
</g>
</svg>
