<?xml version="1.0" encoding="UTF-8" standalone="no"?>
<!DOCTYPE svg PUBLIC "-//W3C//DTD SVG 1.1//EN" "http://www.w3.org/Graphics/SVG/1.1/DTD/svg11.dtd">
<svg width="100%" height="100%" viewBox="0 0 976 184" version="1.1" xmlns="http://www.w3.org/2000/svg" xmlns:xlink="http://www.w3.org/1999/xlink" xml:space="preserve" xmlns:serif="http://www.serif.com/" style="fill-rule:evenodd;clip-rule:evenodd;stroke-linecap:round;stroke-miterlimit:2;">
    <g transform="matrix(1,0,0,1,-1356,-260)">
        <g>
            <g transform="matrix(0.9661,0,0,0.3029,1135.37,-295.746)">
                <path d="M434,2264.29L474,2154.18L514,2264.29L514,2353.89L434,2353.89L434,2264.29Z" style="fill:rgb(100,73,214);"/>
            </g>
            <g transform="matrix(-0.573042,-7.01774e-17,7.59651e-17,-0.620302,1779.92,1778.99)">
                <rect x="427" y="2195.29" width="79" height="158.606" style="fill:rgb(245,170,0);"/>
            </g>
            <g transform="matrix(0.63764,0,0,0.63764,989.326,-1071.57)">
                <path d="M700.062,2296.6C697.2,2298.99 693.179,2300.04 689.312,2299.07C683.318,2297.56 679.949,2291.75 681.793,2286.11C677.199,2290.24 670.004,2290.25 665.735,2286.12C661.466,2281.99 661.731,2275.28 666.325,2271.15C660.212,2272.67 654.112,2269.32 652.713,2263.67C651.313,2258.03 655.139,2252.22 661.252,2250.7C655.258,2249.2 651.889,2243.39 653.733,2237.74C655.578,2232.1 661.941,2228.74 667.935,2230.25C663.666,2226.12 663.93,2219.41 668.524,2215.28C673.118,2211.14 680.314,2211.14 684.582,2215.27C683.183,2209.62 687.009,2203.81 693.122,2202.3C699.235,2200.78 705.334,2204.13 706.734,2209.77C708.578,2204.13 714.942,2200.77 720.935,2202.28C726.929,2203.78 730.298,2209.59 728.454,2215.24C733.048,2211.1 740.243,2211.1 744.512,2215.22C748.781,2219.35 748.517,2226.06 743.923,2230.19C750.036,2228.68 756.135,2232.03 757.535,2237.67C758.934,2243.31 755.108,2249.12 748.995,2250.64C754.989,2252.15 758.358,2257.95 756.514,2263.6C754.67,2269.24 748.306,2272.6 742.312,2271.09C746.581,2275.22 746.317,2281.93 741.723,2286.06C737.129,2290.2 729.934,2290.2 725.665,2286.08C727.065,2291.72 723.238,2297.53 717.125,2299.05C714.714,2299.64 712.305,2299.49 710.185,2298.73L710.185,2334.89L700.062,2334.89L700.062,2296.6Z" style="fill:rgb(124,161,43);"/>
            </g>
            <g transform="matrix(-1.95109,0,0,1.35036,4077.65,-1542.42)">
                <path d="M1253.5,1358.78L1253.04,1358.78C1245.45,1358.78 1238.92,1361.7 1238.92,1373.37L1238.92,1402.65C1238.92,1411.63 1234.6,1413.62 1228.42,1413.62L1228.42,1415.95C1234.6,1415.95 1238.92,1417.93 1238.92,1426.92L1238.92,1456.2C1238.92,1467.87 1245.45,1470.78 1253.04,1470.78L1253.5,1470.78L1253.5,1468.45C1246.27,1468.45 1241.25,1466.12 1241.25,1455.62L1241.25,1426.8C1241.25,1419.68 1238.45,1416.18 1234.49,1414.78C1238.45,1413.38 1241.25,1410 1241.25,1402.77L1241.25,1373.95C1241.25,1363.45 1246.27,1361.12 1253.5,1361.12L1253.5,1358.78Z" style="fill:rgb(97,94,92);fill-rule:nonzero;"/>
            </g>
            <g transform="matrix(1.95109,0,0,1.35036,-1040.37,-1542.42)">
                <path d="M1253.5,1358.78L1253.04,1358.78C1245.45,1358.78 1238.92,1361.7 1238.92,1373.37L1238.92,1402.65C1238.92,1411.63 1234.6,1413.62 1228.42,1413.62L1228.42,1415.95C1234.6,1415.95 1238.92,1417.93 1238.92,1426.92L1238.92,1456.2C1238.92,1467.87 1245.45,1470.78 1253.04,1470.78L1253.5,1470.78L1253.5,1468.45C1246.27,1468.45 1241.25,1466.12 1241.25,1455.62L1241.25,1426.8C1241.25,1419.68 1238.45,1416.18 1234.49,1414.78C1238.45,1413.38 1241.25,1410 1241.25,1402.77L1241.25,1373.95C1241.25,1363.45 1246.27,1361.12 1253.5,1361.12L1253.5,1358.78Z" style="fill:rgb(97,94,92);fill-rule:nonzero;"/>
            </g>
            <g transform="matrix(1,0,0,1,408,-1881.89)">
                <path d="M1307.29,2249.57L1307.29,2244.24C1307.29,2211.57 1317.02,2198.64 1335.55,2198.64L1336.35,2198.64C1353.55,2198.64 1361.29,2208.24 1361.29,2232.24L1366.89,2232.24L1366.89,2228.9C1366.89,2206.24 1357.02,2193.57 1335.69,2193.57C1313.02,2193.57 1301.69,2208.24 1301.69,2244.24L1301.69,2249.57C1301.69,2285.57 1313.02,2300.24 1335.69,2300.24C1357.02,2300.24 1366.89,2287.57 1366.89,2266.9L1366.89,2265.57L1361.29,2265.57C1361.29,2284.9 1353.82,2295.17 1336.35,2295.17L1335.55,2295.17C1316.75,2295.17 1307.29,2282.24 1307.29,2249.57Z" style="fill:rgb(97,94,92);fill-rule:nonzero;"/>
                <path d="M1384.89,2298.9L1390.22,2298.9L1390.22,2228.24L1384.89,2228.24L1384.89,2298.9ZM1391.55,2200.9L1383.55,2200.9L1383.55,2208.9L1391.55,2208.9L1391.55,2200.9Z" style="fill:rgb(97,94,92);fill-rule:nonzero;"/>
                <path d="M1422.22,2228.24L1422.22,2208.24L1416.89,2208.24L1416.89,2228.24L1405.55,2228.24L1405.55,2233.3L1416.89,2233.3L1416.89,2280.9C1416.89,2294.9 1424.89,2300.24 1435.55,2300.24C1440.89,2300.24 1443.95,2299.3 1444.89,2298.9L1444.89,2293.97C1443.69,2294.5 1440.09,2295.17 1436.89,2295.17C1427.15,2295.17 1422.22,2292.24 1422.22,2280.24L1422.22,2233.3L1446.22,2233.3L1446.22,2228.24L1422.22,2228.24Z" style="fill:rgb(97,94,92);fill-rule:nonzero;"/>
                <path d="M1484.89,2290.24L1462.35,2228.24L1456.75,2228.24L1482.22,2296.5L1471.29,2325.57L1477.15,2325.57L1487.55,2296.5L1513.02,2228.24L1507.42,2228.24L1484.89,2290.24Z" style="fill:rgb(97,94,92);fill-rule:nonzero;"/>
                <path d="M1563.15,2194.9L1563.15,2265.57C1563.15,2286.24 1557.42,2295.17 1543.42,2295.17C1529.42,2295.17 1523.69,2286.24 1523.69,2265.57L1518.62,2265.57L1518.62,2266.9C1518.62,2287.97 1524.75,2300.24 1543.42,2300.24C1562.09,2300.24 1568.49,2287.57 1568.49,2266.9L1568.49,2194.9L1563.15,2194.9Z" style="fill:rgb(97,94,92);fill-rule:nonzero;"/>
                <path d="M1616.75,2247.57C1636.09,2250.24 1644.89,2257.04 1644.89,2271.04L1644.89,2272.37C1644.89,2287.04 1633.82,2295.17 1618.22,2295.17L1617.42,2295.17C1601.95,2295.17 1590.49,2285.7 1590.49,2265.57L1585.15,2265.57L1585.15,2266.9C1585.15,2287.17 1596.62,2300.24 1617.82,2300.24C1637.29,2300.24 1650.49,2289.57 1650.49,2271.7L1650.49,2270.37C1650.49,2255.7 1641.95,2245.84 1619.29,2242.77C1598.89,2239.97 1592.09,2232.5 1592.09,2220.24L1592.09,2218.9C1592.09,2206.24 1603.29,2198.64 1617.42,2198.64L1618.22,2198.64C1635.95,2198.64 1643.82,2207.7 1643.82,2229.57L1649.15,2229.57L1649.15,2226.24C1649.15,2205.7 1640.09,2193.57 1617.82,2193.57C1599.55,2193.57 1586.49,2203.57 1586.49,2220.24L1586.49,2221.57C1586.49,2233.44 1594.09,2244.5 1616.75,2247.57Z" style="fill:rgb(97,94,92);fill-rule:nonzero;"/>
                <path d="M1699.82,2300.24C1722.49,2300.24 1734.09,2285.57 1734.09,2249.57L1734.09,2244.24C1734.09,2208.24 1722.49,2193.57 1699.82,2193.57C1677.15,2193.57 1665.55,2208.24 1665.55,2244.24L1665.55,2249.57C1665.55,2285.57 1677.15,2300.24 1699.82,2300.24ZM1699.42,2295.17C1680.49,2295.17 1671.15,2282.24 1671.15,2249.57L1671.15,2244.24C1671.15,2211.57 1680.49,2198.64 1699.42,2198.64L1700.22,2198.64C1719.15,2198.64 1728.49,2211.57 1728.49,2244.24L1728.49,2249.57C1728.49,2282.24 1719.15,2295.17 1700.22,2295.17L1699.42,2295.17Z" style="fill:rgb(97,94,92);fill-rule:nonzero;"/>
                <path d="M1818.49,2194.9L1813.42,2194.9L1813.42,2265.57L1813.82,2290.9L1759.15,2194.9L1753.15,2194.9L1753.15,2298.9L1758.22,2298.9L1758.22,2228.24L1757.82,2202.9L1812.49,2298.9L1818.49,2298.9L1818.49,2194.9Z" style="fill:rgb(97,94,92);fill-rule:nonzero;"/>
            </g>
        </g>
        <g transform="matrix(1,0,0,1,471,-347)">
            <g transform="matrix(1.05128,0,0,0.769231,-87.2308,139.769)">
                <path d="M1779,610L1792.36,643.82L1819.28,630.681L1813.97,658.213L1853.18,659.405L1822.22,681.5L1844.17,700.911L1813.97,704.787L1824.85,739.345L1792.36,719.18L1779,744.316L1765.64,719.18L1733.15,739.345L1744.03,704.787L1713.83,700.911L1735.78,681.5L1704.82,659.405L1744.03,658.213L1738.72,630.681L1765.64,643.82L1779,610Z" style="fill:rgb(245,170,0);stroke:rgb(100,73,214);stroke-width:4.3px;"/>
            </g>
            <g transform="matrix(1,0,0,1,685,-53)">
                <path d="M1068.97,727.833L1074.97,727.833L1080.43,710.167L1075.93,710.167L1071.97,724.233L1068,710.167L1063.47,710.167L1068.97,727.833Z" style="fill:rgb(97,94,92);fill-rule:nonzero;"/>
                <path d="M1091.23,723.933L1088.9,723.967L1096.4,715.8C1098.47,713.567 1099.37,712.033 1099.37,709.1L1099.37,708.533C1099.37,704.933 1096.93,701.4 1090.93,701.4C1085.17,701.4 1082.5,704.3 1082.5,709.8L1082.5,710.5L1086.9,710.5C1086.9,706.7 1088.33,705.3 1090.8,705.3L1091.07,705.3C1093.33,705.3 1094.93,706.7 1094.93,709.333L1094.93,709.667C1094.93,711.233 1094.33,712.233 1092.93,713.733L1082.5,725.067L1082.5,727.833L1099.37,727.833L1099.37,723.933L1091.23,723.933Z" style="fill:rgb(97,94,92);fill-rule:nonzero;"/>
                <rect x="1102.73" y="723.133" width="4.733" height="4.7" style="fill:rgb(97,94,92);fill-rule:nonzero;"/>
                <path d="M1127.6,720.433L1127.6,709.233C1127.6,704.733 1124.93,701.4 1119.27,701.4C1113.6,701.4 1110.93,704.733 1110.93,709.233L1110.93,720.433C1110.93,724.933 1113.6,728.267 1119.27,728.267C1124.93,728.267 1127.6,724.933 1127.6,720.433ZM1123.17,709.367L1123.17,720.3C1123.17,722.733 1122.1,724.367 1119.33,724.367L1119.2,724.367C1116.43,724.367 1115.37,722.733 1115.37,720.3L1115.37,709.367C1115.37,706.933 1116.43,705.3 1119.2,705.3L1119.33,705.3C1122.1,705.3 1123.17,706.933 1123.17,709.367Z" style="fill:rgb(97,94,92);fill-rule:nonzero;"/>
            </g>
        </g>
    </g>
</svg>
