<?xml version="1.0" encoding="UTF-8" standalone="no"?><!DOCTYPE svg PUBLIC "-//W3C//DTD SVG 1.1//EN" "http://www.w3.org/Graphics/SVG/1.1/DTD/svg11.dtd"><svg width="100%" height="100%" viewBox="0 0 137 102" version="1.1" xmlns="http://www.w3.org/2000/svg" xmlns:xlink="http://www.w3.org/1999/xlink" xml:space="preserve" style="fill-rule:evenodd;clip-rule:evenodd;stroke-linejoin:round;stroke-miterlimit:1.41421;"><g><path d="M6.942,77.531l0,-1.28c0,-7.104 1.92,-10.112 6.08,-10.112l0.224,0c3.744,0 5.312,2.208 5.312,7.36l2.368,0l0,-0.896c0,-5.632 -2.56,-8.544 -7.872,-8.544c-5.728,0 -8.48,3.552 -8.48,12.192l0,1.28c0,8.64 2.752,12.192 8.48,12.192c5.312,0 7.872,-2.912 7.872,-8.16l0,-0.32l-2.368,0c0,4.128 -1.568,6.4 -5.312,6.4l-0.224,0c-4.192,0 -6.08,-3.008 -6.08,-10.112Z" style="fill:#615e5c;fill-rule:nonzero;"/><path d="M24.862,89.371l2.24,0l0,-16.96l-2.24,0l0,16.96Zm2.56,-23.84l-2.88,0l0,2.88l2.88,0l0,-2.88Z" style="fill:#615e5c;fill-rule:nonzero;"/><path d="M35.358,72.411l0,-4.8l-2.24,0l0,4.8l-2.688,0l0,2.016l2.688,0l0,10.24c0,3.68 2.08,5.056 4.96,5.056c1.344,0 2.112,-0.256 2.368,-0.352l0,-1.952c-0.256,0.128 -1.12,0.288 -1.824,0.288c-2.144,0 -3.264,-0.64 -3.264,-3.328l0,-9.952l5.408,0l0,-2.016l-5.408,0Z" style="fill:#615e5c;fill-rule:nonzero;"/><path d="M50.206,86.267l-4.832,-13.856l-2.4,0l6.08,16.32l-2.656,7.04l2.592,0l2.4,-7.04l6.08,-16.32l-2.4,0l-4.864,13.856Z" style="fill:#615e5c;fill-rule:nonzero;"/><path d="M69.054,64.411l0,16.896c0,4.352 -1.152,6.336 -4.096,6.336c-2.976,0 -4.128,-1.984 -4.128,-6.4l-2.176,0l0,0.448c0,5.088 1.568,8.032 6.336,8.032c4.672,0 6.368,-3.04 6.368,-8.032l0,-17.28l-2.304,0Z" style="fill:#615e5c;fill-rule:nonzero;"/><path d="M82.782,77.531c4.352,0.608 6.176,2.08 6.176,5.024l0,0.288c0,3.04 -2.272,4.8 -5.664,4.8l-0.224,0c-3.36,0 -5.728,-2.016 -5.728,-6.4l-2.304,0l0,0.32c0,5.152 2.848,8.16 8.128,8.16c4.992,0 8.16,-2.624 8.16,-7.04l0,-0.32c0,-3.84 -2.24,-6.048 -7.68,-6.784c-4.576,-0.64 -5.952,-2.208 -5.952,-4.864l0,-0.256c0,-2.688 2.304,-4.32 5.344,-4.32l0.224,0c3.808,0 5.472,1.984 5.472,6.72l2.304,0l0,-0.768c0,-5.152 -2.304,-8.032 -7.872,-8.032c-4.736,0 -7.84,2.528 -7.84,6.688l0,0.32c0,3.296 2.016,5.728 7.456,6.464Z" style="fill:#615e5c;fill-rule:nonzero;"/><path d="M103.166,89.723c5.728,0 8.576,-3.552 8.576,-12.192l0,-1.28c0,-8.64 -2.848,-12.192 -8.576,-12.192c-5.696,0 -8.544,3.552 -8.544,12.192l0,1.28c0,8.64 2.848,12.192 8.544,12.192Zm-0.096,-2.08c-4.192,0 -6.08,-3.008 -6.08,-10.112l0,-1.28c0,-7.104 1.888,-10.112 6.08,-10.112l0.224,0c4.192,0 6.08,3.008 6.08,10.112l0,1.28c0,7.104 -1.888,10.112 -6.08,10.112l-0.224,0Z" style="fill:#615e5c;fill-rule:nonzero;"/><path d="M132.286,64.411l-2.176,0l0,15.264l0.096,5.792l-11.776,-21.056l-2.496,0l0,24.96l2.176,0l0,-15.264l-0.128,-5.792l11.808,21.056l2.496,0l0,-24.96Z" style="fill:#615e5c;fill-rule:nonzero;"/></g><path d="M16.08,39.625l9.6,-17.596l9.6,17.596l0,14.319l-19.2,0l0,-14.319Z" style="fill:#f7c400;"/><path d="M91.878,43.729l14.545,-12.553l14.545,12.553l0,10.215l-29.09,0l0,-10.215Z" style="fill:#027dc2;"/><rect x="42.51" y="14.38" width="13.92" height="39.565" style="fill:#969494;"/><path d="M75.135,44.754c-0.687,0.572 -1.652,0.825 -2.58,0.592c-1.439,-0.362 -2.247,-1.756 -1.805,-3.111c-1.102,0.993 -2.829,0.994 -3.854,0.003c-1.024,-0.99 -0.961,-2.6 0.142,-3.593c-1.467,0.364 -2.931,-0.439 -3.267,-1.794c-0.336,-1.354 0.582,-2.749 2.049,-3.113c-1.438,-0.361 -2.247,-1.755 -1.804,-3.11c0.443,-1.354 1.97,-2.16 3.408,-1.799c-1.024,-0.99 -0.961,-2.6 0.142,-3.592c1.102,-0.993 2.829,-0.994 3.854,-0.003c-0.336,-1.354 0.582,-2.749 2.049,-3.113c1.467,-0.364 2.931,0.44 3.267,1.794c0.443,-1.355 1.97,-2.161 3.408,-1.799c1.439,0.362 2.248,1.755 1.805,3.11c1.103,-0.992 2.829,-0.994 3.854,-0.003c1.024,0.991 0.961,2.601 -0.142,3.593c1.468,-0.364 2.931,0.44 3.267,1.794c0.336,1.354 -0.582,2.749 -2.049,3.113c1.438,0.362 2.247,1.755 1.804,3.11c-0.442,1.355 -1.97,2.161 -3.408,1.799c1.024,0.991 0.961,2.601 -0.141,3.593c-1.103,0.992 -2.83,0.993 -3.854,0.003c0.336,1.354 -0.583,2.749 -2.05,3.113c-0.579,0.143 -1.157,0.105 -1.665,-0.077l0,8.68l-2.43,0l0,-9.19Z" style="fill:#3d756b;"/><path d="M4.574,10.3l0,49.567l5.824,0l0,-3.407l-3.836,0l0,-42.753l3.836,0l0,-3.407l-5.824,0Z" style="fill:#615e5c;fill-rule:nonzero;"/><path d="M132.286,10.3l0,49.567l-5.824,0l0,-3.407l3.836,0l0,-42.753l-3.836,0l0,-3.407l5.824,0Z" style="fill:#615e5c;fill-rule:nonzero;"/></svg>