<?xml version="1.0" encoding="UTF-8" standalone="no"?><!DOCTYPE svg PUBLIC "-//W3C//DTD SVG 1.1//EN" "http://www.w3.org/Graphics/SVG/1.1/DTD/svg11.dtd"><svg width="100%" height="100%" viewBox="0 0 211 40" version="1.1" xmlns="http://www.w3.org/2000/svg" xmlns:xlink="http://www.w3.org/1999/xlink" xml:space="preserve" xmlns:serif="http://www.serif.com/" style="fill-rule:evenodd;clip-rule:evenodd;stroke-linejoin:round;stroke-miterlimit:1.41421;"><path d="M47.918,24.328l9.274,-8.004l9.275,8.004l0,6.514l-18.549,0l0,-6.514Z" style="fill:#6449d6;"/><rect x="32.39" y="7.23" width="10.865" height="23.612" style="fill:#f5aa00;"/><path d="M19.371,24.982c-0.438,0.365 -1.053,0.526 -1.645,0.377c-0.917,-0.231 -1.433,-1.119 -1.15,-1.983c-0.703,0.633 -1.805,0.633 -2.458,0.002c-0.653,-0.632 -0.613,-1.658 0.09,-2.291c-0.935,0.232 -1.869,-0.281 -2.083,-1.144c-0.214,-0.864 0.372,-1.753 1.307,-1.985c-0.917,-0.231 -1.433,-1.119 -1.151,-1.983c0.283,-0.864 1.257,-1.378 2.174,-1.147c-0.653,-0.632 -0.613,-1.659 0.09,-2.291c0.703,-0.633 1.804,-0.634 2.457,-0.002c-0.214,-0.863 0.372,-1.753 1.307,-1.985c0.936,-0.232 1.869,0.28 2.083,1.144c0.283,-0.864 1.256,-1.378 2.174,-1.147c0.917,0.231 1.432,1.119 1.15,1.983c0.703,-0.633 1.804,-0.634 2.458,-0.002c0.653,0.632 0.612,1.658 -0.091,2.291c0.936,-0.232 1.869,0.281 2.084,1.144c0.214,0.863 -0.372,1.753 -1.307,1.985c0.917,0.231 1.433,1.119 1.15,1.983c-0.282,0.864 -1.256,1.378 -2.173,1.147c0.653,0.632 0.613,1.658 -0.09,2.291c-0.703,0.633 -1.804,0.634 -2.458,0.002c0.215,0.863 -0.371,1.753 -1.306,1.985c-0.369,0.091 -0.738,0.067 -1.062,-0.049l0,5.535l-1.55,0l0,-5.86Z" style="fill:#7ca12b;"/><path d="M66.467,0.887l0.219,0c3.551,0 6.61,0.945 6.61,4.726l0,9.491c0,2.911 2.021,3.554 4.917,3.554l0,0.756c-2.896,0 -4.917,0.643 -4.917,3.554l0,9.491c0,3.781 -3.059,4.726 -6.61,4.726l-0.219,0l0,-0.756c3.387,0 5.736,-0.757 5.736,-4.159l0,-9.34c0,-2.306 1.311,-3.44 3.169,-3.894c-1.858,-0.454 -3.169,-1.55 -3.169,-3.894l0,-9.34c0,-3.402 -2.349,-4.159 -5.736,-4.159l0,-0.756Z" style="fill:#615e5c;fill-rule:nonzero;"/><path d="M12.081,0.887l-0.218,0c-3.551,0 -6.611,0.945 -6.611,4.726l0,9.491c0,2.911 -2.021,3.554 -4.917,3.554l0,0.756c2.896,0 4.917,0.643 4.917,3.554l0,9.491c0,3.781 3.06,4.726 6.611,4.726l0.218,0l0,-0.756c-3.387,0 -5.736,-0.757 -5.736,-4.159l0,-9.34c0,-2.306 -1.311,-3.44 -3.169,-3.894c1.858,-0.454 3.169,-1.55 3.169,-3.894l0,-9.34c0,-3.402 2.349,-4.159 5.736,-4.159l0,-0.756Z" style="fill:#615e5c;fill-rule:nonzero;"/><g><path d="M86.469,18.945l0,-1.28c0,-7.84 2.336,-10.944 6.784,-10.944l0.192,0c4.128,0 5.984,2.304 5.984,8.064l1.344,0l0,-0.8c0,-5.44 -2.368,-8.48 -7.488,-8.48c-5.44,0 -8.16,3.52 -8.16,12.16l0,1.28c0,8.64 2.72,12.16 8.16,12.16c5.12,0 7.488,-3.04 7.488,-8l0,-0.32l-1.344,0c0,4.64 -1.792,7.104 -5.984,7.104l-0.192,0c-4.512,0 -6.784,-3.104 -6.784,-10.944Z" style="fill:#615e5c;fill-rule:nonzero;"/><path d="M105.093,30.785l1.28,0l0,-16.96l-1.28,0l0,16.96Zm1.6,-23.52l-1.92,0l0,1.92l1.92,0l0,-1.92Z" style="fill:#615e5c;fill-rule:nonzero;"/><path d="M114.053,13.825l0,-4.8l-1.28,0l0,4.8l-2.72,0l0,1.216l2.72,0l0,11.424c0,3.36 1.92,4.64 4.48,4.64c1.28,0 2.016,-0.224 2.24,-0.32l0,-1.184c-0.288,0.128 -1.152,0.288 -1.92,0.288c-2.336,0 -3.52,-0.704 -3.52,-3.584l0,-11.264l5.76,0l0,-1.216l-5.76,0Z" style="fill:#615e5c;fill-rule:nonzero;"/><path d="M129.093,28.705l-5.408,-14.88l-1.344,0l6.112,16.384l-2.624,6.976l1.408,0l2.496,-6.976l6.112,-16.384l-1.344,0l-5.408,14.88Z" style="fill:#615e5c;fill-rule:nonzero;"/><path d="M147.877,5.825l0,16.96c0,4.96 -1.376,7.104 -4.736,7.104c-3.36,0 -4.736,-2.144 -4.736,-7.104l-1.216,0l0,0.32c0,5.056 1.472,8 5.952,8c4.48,0 6.016,-3.04 6.016,-8l0,-17.28l-1.28,0Z" style="fill:#615e5c;fill-rule:nonzero;"/><path d="M160.741,18.465c4.64,0.64 6.752,2.272 6.752,5.632l0,0.32c0,3.52 -2.656,5.472 -6.4,5.472l-0.192,0c-3.712,0 -6.464,-2.272 -6.464,-7.104l-1.28,0l0,0.32c0,4.864 2.752,8 7.84,8c4.672,0 7.84,-2.56 7.84,-6.848l0,-0.32c0,-3.52 -2.048,-5.888 -7.488,-6.624c-4.896,-0.672 -6.528,-2.464 -6.528,-5.408l0,-0.32c0,-3.04 2.688,-4.864 6.08,-4.864l0.192,0c4.256,0 6.144,2.176 6.144,7.424l1.28,0l0,-0.8c0,-4.928 -2.176,-7.84 -7.52,-7.84c-4.384,0 -7.52,2.4 -7.52,6.4l0,0.32c0,2.848 1.824,5.504 7.264,6.24Z" style="fill:#615e5c;fill-rule:nonzero;"/><path d="M180.677,31.105c5.44,0 8.224,-3.52 8.224,-12.16l0,-1.28c0,-8.64 -2.784,-12.16 -8.224,-12.16c-5.44,0 -8.224,3.52 -8.224,12.16l0,1.28c0,8.64 2.784,12.16 8.224,12.16Zm-0.096,-1.216c-4.544,0 -6.784,-3.104 -6.784,-10.944l0,-1.28c0,-7.84 2.24,-10.944 6.784,-10.944l0.192,0c4.544,0 6.784,3.104 6.784,10.944l0,1.28c0,7.84 -2.24,10.944 -6.784,10.944l-0.192,0Z" style="fill:#615e5c;fill-rule:nonzero;"/><path d="M209.157,5.825l-1.216,0l0,16.96l0.096,6.08l-13.12,-23.04l-1.44,0l0,24.96l1.216,0l0,-16.96l-0.096,-6.08l13.12,23.04l1.44,0l0,-24.96Z" style="fill:#615e5c;fill-rule:nonzero;"/></g></svg>