<?xml version="1.0" encoding="UTF-8" standalone="no"?><!DOCTYPE svg PUBLIC "-//W3C//DTD SVG 1.1//EN" "http://www.w3.org/Graphics/SVG/1.1/DTD/svg11.dtd"><svg width="100%" height="100%" viewBox="0 0 135 118" version="1.1" xmlns="http://www.w3.org/2000/svg" xmlns:xlink="http://www.w3.org/1999/xlink" xml:space="preserve" xmlns:serif="http://www.serif.com/" style="fill-rule:evenodd;clip-rule:evenodd;stroke-linejoin:round;stroke-miterlimit:1.41421;"><path d="M48.62,54.106l17.907,-15.454l17.906,15.454l0,12.576l-35.813,0l0,-12.576Z" style="fill:#6449d6;"/><rect x="95.211" y="17.974" width="22.417" height="48.708" style="fill:#f5aa00;"/><path d="M27.927,53.448c-0.846,0.705 -2.034,1.016 -3.177,0.728c-1.771,-0.445 -2.766,-2.161 -2.221,-3.829c-1.357,1.222 -3.483,1.224 -4.745,0.004c-1.261,-1.22 -1.183,-3.202 0.174,-4.423c-1.806,0.448 -3.608,-0.542 -4.021,-2.209c-0.414,-1.667 0.717,-3.384 2.523,-3.832c-1.771,-0.446 -2.767,-2.161 -2.222,-3.829c0.545,-1.668 2.425,-2.66 4.196,-2.215c-1.261,-1.219 -1.183,-3.201 0.174,-4.423c1.358,-1.221 3.484,-1.223 4.745,-0.003c-0.414,-1.667 0.717,-3.385 2.523,-3.833c1.806,-0.448 3.608,0.542 4.022,2.209c0.545,-1.668 2.425,-2.66 4.196,-2.215c1.771,0.446 2.766,2.161 2.221,3.829c1.358,-1.221 3.484,-1.223 4.745,-0.003c1.261,1.219 1.183,3.201 -0.174,4.423c1.806,-0.448 3.608,0.541 4.022,2.208c0.413,1.667 -0.717,3.385 -2.524,3.833c1.771,0.445 2.767,2.161 2.222,3.828c-0.545,1.668 -2.425,2.661 -4.196,2.215c1.261,1.22 1.183,3.202 -0.174,4.423c-1.358,1.222 -3.484,1.223 -4.745,0.004c0.414,1.667 -0.717,3.384 -2.523,3.832c-0.712,0.177 -1.424,0.13 -2.05,-0.094l0,10.686l-2.991,0l0,-11.314Z" style="fill:#7ca12b;"/><g><path d="M5.74,96.731l0,-1.28c0,-7.104 1.92,-10.112 6.08,-10.112l0.224,0c3.744,0 5.312,2.208 5.312,7.36l2.368,0l0,-0.896c0,-5.632 -2.56,-8.544 -7.872,-8.544c-5.728,0 -8.48,3.552 -8.48,12.192l0,1.28c0,8.64 2.752,12.192 8.48,12.192c5.312,0 7.872,-2.912 7.872,-8.16l0,-0.32l-2.368,0c0,4.128 -1.568,6.4 -5.312,6.4l-0.224,0c-4.192,0 -6.08,-3.008 -6.08,-10.112Z" style="fill:#615e5c;fill-rule:nonzero;"/><path d="M23.66,108.571l2.24,0l0,-16.96l-2.24,0l0,16.96Zm2.56,-23.84l-2.88,0l0,2.88l2.88,0l0,-2.88Z" style="fill:#615e5c;fill-rule:nonzero;"/><path d="M34.156,91.611l0,-4.8l-2.24,0l0,4.8l-2.688,0l0,2.016l2.688,0l0,10.24c0,3.68 2.08,5.056 4.96,5.056c1.344,0 2.112,-0.256 2.368,-0.352l0,-1.952c-0.256,0.128 -1.12,0.288 -1.824,0.288c-2.144,0 -3.264,-0.64 -3.264,-3.328l0,-9.952l5.408,0l0,-2.016l-5.408,0Z" style="fill:#615e5c;fill-rule:nonzero;"/><path d="M49.004,105.467l-4.832,-13.856l-2.4,0l6.08,16.32l-2.656,7.04l2.592,0l2.4,-7.04l6.08,-16.32l-2.4,0l-4.864,13.856Z" style="fill:#615e5c;fill-rule:nonzero;"/><path d="M67.852,83.611l0,16.896c0,4.352 -1.152,6.336 -4.096,6.336c-2.976,0 -4.128,-1.984 -4.128,-6.4l-2.176,0l0,0.448c0,5.088 1.568,8.032 6.336,8.032c4.672,0 6.368,-3.04 6.368,-8.032l0,-17.28l-2.304,0Z" style="fill:#615e5c;fill-rule:nonzero;"/><path d="M81.58,96.731c4.352,0.608 6.176,2.08 6.176,5.024l0,0.288c0,3.04 -2.272,4.8 -5.664,4.8l-0.224,0c-3.36,0 -5.728,-2.016 -5.728,-6.4l-2.304,0l0,0.32c0,5.152 2.848,8.16 8.128,8.16c4.992,0 8.16,-2.624 8.16,-7.04l0,-0.32c0,-3.84 -2.24,-6.048 -7.68,-6.784c-4.576,-0.64 -5.952,-2.208 -5.952,-4.864l0,-0.256c0,-2.688 2.304,-4.32 5.344,-4.32l0.224,0c3.808,0 5.472,1.984 5.472,6.72l2.304,0l0,-0.768c0,-5.152 -2.304,-8.032 -7.872,-8.032c-4.736,0 -7.84,2.528 -7.84,6.688l0,0.32c0,3.296 2.016,5.728 7.456,6.464Z" style="fill:#615e5c;fill-rule:nonzero;"/><path d="M101.964,108.923c5.728,0 8.576,-3.552 8.576,-12.192l0,-1.28c0,-8.64 -2.848,-12.192 -8.576,-12.192c-5.696,0 -8.544,3.552 -8.544,12.192l0,1.28c0,8.64 2.848,12.192 8.544,12.192Zm-0.096,-2.08c-4.192,0 -6.08,-3.008 -6.08,-10.112l0,-1.28c0,-7.104 1.888,-10.112 6.08,-10.112l0.224,0c4.192,0 6.08,3.008 6.08,10.112l0,1.28c0,7.104 -1.888,10.112 -6.08,10.112l-0.224,0Z" style="fill:#615e5c;fill-rule:nonzero;"/><path d="M131.084,83.611l-2.176,0l0,15.264l0.096,5.792l-11.776,-21.056l-2.496,0l0,24.96l2.176,0l0,-15.264l-0.128,-5.792l11.808,21.056l2.496,0l0,-24.96Z" style="fill:#615e5c;fill-rule:nonzero;"/></g><path d="M9.868,7.83l-4.228,0l0,65.157l4.228,0l0,3.338l-6.496,0l0,-71.834l6.496,0l0,3.339Z" style="fill:#615e5c;"/><path d="M124.588,7.83l4.229,0l0,65.157l-4.229,0l0,3.338l6.496,0l0,-71.834l-6.496,0l0,3.339Z" style="fill:#615e5c;"/></svg>