<svg xmlns="http://www.w3.org/2000/svg" viewBox="0 0 50 50" width="20" height="20">
    <path style="text-indent:0;text-align:start;line-height:normal;text-transform:none;block-progression:tb;-inkscape-font-specification:Sans" d="M 25 2 C 12.309534 2 2 12.309534 2 25 C 2 34.830827 8.1827334 43.245506 16.875 46.53125 A 1.0001 1.0001 0 0 0 18.15625 45.9375 L 23.125 32.84375 A 1.0001 1.0001 0 0 0 22.53125 31.53125 C 19.888346 30.532509 18 28.002557 18 25 C 18 21.122516 21.122516 18 25 18 C 28.877484 18 32 21.122516 32 25 C 32 28.002557 30.111654 30.532509 27.46875 31.53125 A 1.0001 1.0001 0 0 0 26.875 32.84375 L 31.84375 45.9375 A 1.0001 1.0001 0 0 0 33.125 46.53125 C 41.817267 43.245506 48 34.830827 48 25 C 48 12.309534 37.690466 2 25 2 z M 25 4 C 36.609534 4 46 13.390466 46 25 C 46 33.622832 40.731703 40.919108 33.3125 44.15625 L 29.0625 32.9375 C 31.973866 31.446723 34 28.48662 34 25 C 34 20.041484 29.958516 16 25 16 C 20.041484 16 16 20.041484 16 25 C 16 28.48662 18.026134 31.446723 20.9375 32.9375 L 16.6875 44.15625 C 9.2682973 40.919108 4 33.622832 4 25 C 4 13.390466 13.390466 4 25 4 z" color="#000" overflow="visible" font-family="Sans"/>
</svg>