<?xml version="1.0" encoding="UTF-8" standalone="no"?>
<svg xmlns="http://www.w3.org/2000/svg" xmlns:xlink="http://www.w3.org/1999/xlink" xmlns:serif="http://www.serif.com/" width="100%" height="100%" viewBox="0 0 6500 2112" version="1.1" xml:space="preserve" style="fill-rule:evenodd;clip-rule:evenodd;stroke-linejoin:round;stroke-miterlimit:2;">
    <g transform="matrix(4.16667,0,0,4.16667,-850,-979.5)">
        <path d="M408.246,601.132L408.25,742.586L204.184,624.768L204.175,389.007L408.243,506.825L408.246,553.971L367.511,530.467L347.1,518.677L347.094,518.677L245.012,459.736L245.012,601.192L367.514,671.921L367.514,624.768L306.263,589.404L306.263,542.255L408.246,601.132Z" style="fill:rgb(4,118,200);fill-rule:nonzero;"></path>
        <path d="M428.685,424.464L306.171,353.736L428.685,283.005L551.182,353.736L530.771,365.524L428.685,424.464ZM428.679,235.858L224.503,353.739L428.679,471.617L632.853,353.736L428.679,235.858Z" style="fill:rgb(4,118,200);fill-rule:nonzero;"></path>
        <path d="M530.956,506.263L571.795,482.687L612.626,459.11L612.633,506.263L653.359,482.75L653.359,388.976L449.29,506.793L449.29,553.409L449.296,553.412L449.29,567.484L449.296,742.024L449.188,741.964L449.188,742.62L653.359,624.737L653.359,529.896L612.633,553.415L612.633,600.567L490.125,671.295L490.13,529.842L530.956,506.263Z" style="fill:rgb(4,118,200);fill-rule:nonzero;"></path>
        <path d="M919.443,342.22C919.443,319.915 902.847,303.233 880.566,303.233C858.288,303.233 841.602,320.071 841.602,342.22C841.602,364.367 858.288,381.208 880.566,381.208C902.847,381.208 919.443,364.523 919.443,342.22ZM880.566,398.271C847.755,398.271 823.565,374.213 823.565,342.22C823.565,310.225 847.755,286.169 880.566,286.169C913.334,286.169 937.48,310.183 937.48,342.22C937.48,374.261 913.334,398.274 880.566,398.274L880.566,398.271Z" style="fill:rgb(4,118,200);fill-rule:nonzero;"></path>
        <path d="M1026.32,354.568C1026.32,338.857 1014.85,327.222 999.134,327.222C983.423,327.222 971.83,338.968 971.83,354.568C971.83,370.172 983.423,381.915 999.134,381.915C1014.85,381.915 1026.32,370.28 1026.32,354.568ZM1000.48,310.863C1025.42,310.863 1043.66,329.476 1043.66,354.571C1043.66,379.553 1025.42,398.319 1000.48,398.319C989.687,398.319 980.104,394.581 972.807,388.224L972.807,426.124L955.671,426.124L955.671,312.898L967.217,312.898L970.438,323.131C977.974,315.449 988.479,310.866 1000.48,310.866L1000.48,310.863Z" style="fill:rgb(4,118,200);fill-rule:nonzero;"></path>
        <path d="M1073.61,346.472L1124.01,346.472C1120.94,333.812 1111.39,326.337 1098.7,326.337C1085.81,326.337 1076.42,334.111 1073.61,346.472ZM1141.19,354.765C1141.19,356.642 1141.03,358.515 1140.84,360.394L1073.19,360.394C1075.33,373.902 1085.05,382.205 1098.7,382.205C1108.66,382.205 1116.72,377.601 1121.12,370L1139.16,370C1132.53,387.597 1117.31,398.276 1098.7,398.276C1074.33,398.276 1055.87,379.465 1055.87,354.57C1055.87,329.631 1074.29,310.865 1098.7,310.865C1124.21,310.865 1141.19,330.512 1141.19,354.765Z" style="fill:rgb(4,118,200);fill-rule:nonzero;"></path>
        <path d="M1203.5,311.001C1222.99,311.001 1235.16,325.532 1235.16,346.057L1235.16,396.245L1218.03,396.245L1218.03,349.543C1218.03,334.404 1211.44,326.362 1198.91,326.362C1185.81,326.362 1176.52,336.894 1176.52,351.62L1176.52,396.245L1159.38,396.245L1159.38,312.899L1171.33,312.899L1174.65,324.525C1180.96,316.121 1191.26,310.998 1203.5,310.998L1203.5,311.001Z" style="fill:rgb(4,118,200);fill-rule:nonzero;"></path>
        <path d="M933.446,490.295C933.008,523.417 910.649,547.191 878.915,547.191C847.12,547.191 823.61,523.487 823.61,491.182C823.61,458.989 846.898,435.194 878.564,435.194C904.912,435.194 926.963,451.777 931.839,475.288L913.556,475.288C908.929,461.402 895.198,452.35 878.915,452.35C857.074,452.35 841.647,468.37 841.647,491.182C841.647,514.123 856.657,530.035 878.915,530.035C896.157,530.035 910.182,520.294 914.216,505.608L875.698,505.608L875.698,490.292L933.446,490.295Z" style="fill:rgb(4,118,200);fill-rule:nonzero;"></path>
        <path d="M963.729,495.387L1014.13,495.387C1011.05,482.727 1001.51,475.252 988.812,475.252C975.927,475.252 966.537,483.027 963.729,495.387ZM1031.31,503.681C1031.31,505.557 1031.15,507.43 1030.95,509.309L963.303,509.309C965.443,522.818 975.166,531.12 988.812,531.12C998.772,531.12 1006.83,526.516 1011.24,518.915L1029.28,518.915C1022.64,536.512 1007.43,547.191 988.815,547.191C964.448,547.191 945.991,528.381 945.991,503.486C945.991,478.546 964.406,459.78 988.815,459.78C1014.32,459.78 1031.31,479.427 1031.31,503.681Z" style="fill:rgb(4,118,200);fill-rule:nonzero;"></path>
        <path d="M1115.06,503.484C1115.06,487.532 1103.72,476.137 1087.94,476.137C1072.16,476.137 1060.82,487.532 1060.82,503.484C1060.82,519.438 1072.16,530.83 1087.94,530.83C1103.72,530.83 1115.06,519.438 1115.06,503.484ZM1087.94,547.189C1062.45,547.189 1043.38,528.534 1043.38,503.484C1043.38,478.28 1062.45,459.778 1087.94,459.778C1113.39,459.778 1132.5,478.391 1132.5,503.487C1132.5,528.534 1113.39,547.189 1087.94,547.189Z" style="fill:rgb(4,118,200);fill-rule:nonzero;"></path>
        <path d="M1144.44,518.695L1161.18,518.695C1161.62,527.51 1169.02,532.113 1179.06,532.113C1188.27,532.113 1195.34,528.217 1195.34,521.251C1195.34,513.345 1186.4,511.538 1176.19,509.82C1162.3,507.44 1145.94,504.284 1145.94,484.967C1145.94,470.014 1158.86,459.779 1178.25,459.779C1197.63,459.779 1210.18,470.32 1210.51,486.487L1194.29,486.487C1193.96,478.556 1187.92,474.303 1177.85,474.303C1168.38,474.303 1162.52,478.334 1162.52,484.416C1162.52,491.774 1171.02,493.227 1181.08,494.879C1195.16,497.238 1212.27,499.953 1212.27,520.502C1212.27,536.69 1198.78,547.189 1178.47,547.189C1158.2,547.189 1144.88,535.986 1144.44,518.695Z" style="fill:rgb(4,118,200);fill-rule:nonzero;"></path>
        <path d="M1301.34,503.484C1301.34,487.772 1289.86,476.137 1274.15,476.137C1258.43,476.137 1246.84,487.883 1246.84,503.484C1246.84,519.087 1258.43,530.83 1274.15,530.83C1289.86,530.83 1301.34,519.195 1301.34,503.484ZM1275.49,459.778C1300.43,459.778 1318.67,478.391 1318.67,503.487C1318.67,528.468 1300.43,547.234 1275.49,547.234C1264.7,547.234 1255.12,543.496 1247.82,537.139L1247.82,575.039L1230.68,575.039L1230.68,461.813L1242.23,461.813L1245.45,472.046C1252.99,464.364 1263.49,459.781 1275.49,459.781L1275.49,459.778Z" style="fill:rgb(4,118,200);fill-rule:nonzero;"></path>
        <path d="M1402.82,503.441C1402.82,487.73 1391.34,476.095 1375.63,476.095C1359.92,476.095 1348.33,487.841 1348.33,503.441C1348.33,519.045 1359.92,530.788 1375.63,530.788C1391.34,530.788 1402.82,519.154 1402.82,503.441ZM1420,461.768L1420,545.117L1406.18,545.117L1404.51,534.981C1396.96,542.618 1386.43,547.191 1374.29,547.191C1349.45,547.191 1330.89,528.426 1330.89,503.441C1330.89,478.393 1349.45,459.781 1374.29,459.781C1386.57,459.781 1397.2,464.423 1404.77,472.192L1406.78,461.768L1420,461.768Z" style="fill:rgb(4,118,200);fill-rule:nonzero;"></path>
        <path d="M1491.08,529.597L1491.08,545.161L1478.35,545.161C1460.09,545.161 1448.82,533.895 1448.82,515.48L1448.82,476.486L1433.91,476.486L1433.91,473.174L1462.91,442.354L1465.82,442.354L1465.82,461.812L1490.62,461.812L1490.62,476.486L1465.95,476.486L1465.95,514.128C1465.95,524.065 1471.48,529.597 1481.58,529.597L1491.08,529.597Z" style="fill:rgb(4,118,200);fill-rule:nonzero;"></path>
        <path d="M1507.7,461.812L1524.84,461.812L1524.84,545.158L1507.7,545.158L1507.7,461.812ZM1507.42,431.222L1525.12,431.222L1525.12,448.893L1507.42,448.893L1507.42,431.222Z" style="fill:rgb(4,118,200);fill-rule:nonzero;"></path>
        <path d="M1615.02,503.441C1615.02,487.73 1603.54,476.095 1587.83,476.095C1572.12,476.095 1560.53,487.841 1560.53,503.441C1560.53,519.045 1572.12,530.788 1587.83,530.788C1603.54,530.788 1615.02,519.154 1615.02,503.441ZM1632.2,461.768L1632.2,545.117L1618.38,545.117L1616.71,534.981C1609.16,542.618 1598.63,547.191 1586.49,547.191C1561.66,547.191 1543.09,528.426 1543.09,503.441C1543.09,478.393 1561.66,459.781 1586.49,459.781C1598.77,459.781 1609.4,464.423 1616.97,472.192L1618.98,461.768L1632.2,461.768Z" style="fill:rgb(4,118,200);fill-rule:nonzero;"></path>
        <rect x="1656.63" y="431.935" width="17.13" height="113.226" style="fill:rgb(4,118,200);"></rect>
        <path d="M823.61,640.096C823.61,607.771 847.183,584.111 879.154,584.111C904.715,584.111 925.201,600.035 930.866,624.364L912.918,624.364C907.757,609.971 895.154,601.264 879.154,601.264C857.515,601.264 841.647,617.554 841.647,640.099C841.647,662.641 857.515,678.841 879.154,678.841C895.66,678.841 908.422,669.517 913.29,654.201L931.282,654.201C925.666,679.605 905.176,695.994 879.154,695.994C847.183,695.994 823.61,672.334 823.61,640.096Z" style="fill:rgb(4,118,200);fill-rule:nonzero;"></path>
        <path d="M1013.98,652.399C1013.98,636.448 1002.63,625.052 986.855,625.052C971.078,625.052 959.733,636.448 959.733,652.399C959.733,668.353 971.078,679.746 986.855,679.746C1002.63,679.746 1013.98,668.353 1013.98,652.399ZM986.855,696.104C961.364,696.104 942.29,677.45 942.29,652.399C942.29,627.195 961.364,608.693 986.855,608.693C1012.3,608.693 1031.42,627.306 1031.42,652.402C1031.42,677.45 1012.3,696.104 986.855,696.104Z" style="fill:rgb(4,118,200);fill-rule:nonzero;"></path>
        <path d="M1093.77,608.832C1113.26,608.832 1125.43,623.362 1125.43,643.887L1125.43,694.076L1108.3,694.076L1108.3,647.373C1108.3,632.234 1101.71,624.193 1089.18,624.193C1076.08,624.193 1066.79,634.725 1066.79,649.45L1066.79,694.076L1049.65,694.076L1049.65,610.729L1061.6,610.729L1064.92,622.355C1071.23,613.951 1081.53,608.829 1093.77,608.829L1093.77,608.832Z" style="fill:rgb(4,118,200);fill-rule:nonzero;"></path>
        <path d="M1142.44,667.61L1159.17,667.61C1159.61,676.425 1167.01,681.029 1177.06,681.029C1186.26,681.029 1193.33,677.133 1193.33,670.167C1193.33,662.26 1184.39,660.453 1174.18,658.736C1160.3,656.356 1143.93,653.2 1143.93,633.883C1143.93,618.93 1156.86,608.694 1176.24,608.694C1195.63,608.694 1208.18,619.235 1208.51,635.402L1192.28,635.402C1191.95,627.472 1185.91,623.219 1175.84,623.219C1166.37,623.219 1160.51,627.25 1160.51,633.328C1160.51,640.689 1169.02,642.143 1179.07,643.794C1193.16,646.153 1210.27,648.869 1210.27,669.418C1210.27,685.606 1196.77,696.105 1176.46,696.105C1156.2,696.105 1142.87,684.901 1142.44,667.61Z" style="fill:rgb(4,118,200);fill-rule:nonzero;"></path>
        <path d="M1294.24,652.399C1294.24,636.448 1282.89,625.052 1267.12,625.052C1251.34,625.052 1239.99,636.448 1239.99,652.399C1239.99,668.353 1251.34,679.746 1267.12,679.746C1282.89,679.746 1294.24,668.353 1294.24,652.399ZM1267.12,696.104C1241.62,696.104 1222.55,677.45 1222.55,652.399C1222.55,627.195 1241.62,608.693 1267.12,608.693C1292.56,608.693 1311.68,627.306 1311.68,652.402C1311.68,677.45 1292.56,696.104 1267.12,696.104Z" style="fill:rgb(4,118,200);fill-rule:nonzero;"></path>
        <path d="M1377.33,610.263L1377.33,626.447L1368.29,626.447C1354.12,626.447 1347.05,634.531 1347.05,649.628L1347.05,694.074L1329.91,694.074L1329.91,610.727L1341.5,610.727L1344.4,622.102C1350.37,614.198 1358.54,610.263 1369.92,610.263L1377.33,610.263Z" style="fill:rgb(4,118,200);fill-rule:nonzero;"></path>
        <path d="M1437.53,678.512L1437.53,694.076L1424.79,694.076C1406.53,694.076 1395.27,682.81 1395.27,664.395L1395.27,625.401L1380.36,625.401L1380.36,622.089L1409.35,591.269L1412.27,591.269L1412.27,610.727L1437.07,610.727L1437.07,625.401L1412.4,625.401L1412.4,663.043C1412.4,672.979 1417.93,678.512 1428.02,678.512L1437.53,678.512Z" style="fill:rgb(4,118,200);fill-rule:nonzero;"></path>
        <path d="M1454.15,610.728L1471.28,610.728L1471.28,694.075L1454.15,694.075L1454.15,610.728ZM1453.86,580.139L1471.57,580.139L1471.57,597.81L1453.86,597.81L1453.86,580.139Z" style="fill:rgb(4,118,200);fill-rule:nonzero;"></path>
        <path d="M1494.36,658.882L1494.36,610.729L1511.5,610.729L1511.5,656.481C1511.5,670.955 1519.4,679.746 1532.27,679.746C1545.25,679.746 1553,670.802 1553,656.481L1553,610.729L1570.14,610.729L1570.14,658.882C1570.14,681.31 1555.27,696.105 1532.27,696.105C1509.38,696.105 1494.36,681.31 1494.36,658.882Z" style="fill:rgb(4,118,200);fill-rule:nonzero;"></path>
        <path d="M1686.39,608.83C1703.96,608.83 1715.82,622.194 1715.82,641.068L1715.82,694.076L1698.69,694.076L1698.69,645.282C1698.69,631.863 1692.86,624.193 1682.48,624.193C1671.43,624.193 1662.93,634.306 1662.93,648.501L1662.93,694.076L1646.2,694.076L1646.2,645.282C1646.2,631.863 1640.41,624.193 1629.96,624.193C1618.88,624.193 1610.33,634.306 1610.33,648.501L1610.33,694.076L1593.2,694.076L1593.2,610.727L1605.34,610.727L1608.29,621.496C1614.54,613.679 1624.06,608.83 1634.18,608.83C1645.48,608.83 1654.43,614.383 1659.19,623.423C1665.25,614.458 1675.39,608.83 1686.39,608.83Z" style="fill:rgb(4,118,200);fill-rule:nonzero;"></path>
    </g>
</svg>
