<svg xmlns="http://www.w3.org/2000/svg" viewBox="0 0 512 212.2973"><path d="M328.09,147.3174a16.6966,16.6966,0,0,0-18.083,17.36v26.5217h5.4268V164.6772a12.0558,12.0558,0,0,1,12.0218-12.0895q.4688-.0014.9364.0338h4.5809l2.7724-5.4268Zm-44.7852,0a21.64,21.64,0,0,0-21.3379,20.9757v44.0042h5.4268V168.896a16.094,16.094,0,1,1,16.0929,16.095q-.0909,0-.1818-.0011h-4.6411l-2.7724,5.4268h7.4135a21.5785,21.5785,0,0,0,0-43.0981m89.1492,18.2033a16.7522,16.7522,0,0,0-26.8838-9.7647,16.034,16.034,0,0,0-6.0273,9.7647Zm5.6062,5.2439H339.7842a15.6718,15.6718,0,0,0,5.4846,10.6082,15.9141,15.9141,0,0,0,11.2713,4.0985,15.0687,15.0687,0,0,0,14.4057-9.3424h6.0273a21.3976,21.3976,0,0,1-8.0222,10.91,21.7606,21.7606,0,0,1-12.6586,4.1586,21.3377,21.3377,0,0,1-15.4911-6.3895,21.8252,21.8252,0,0,1-6.872-15.6114,21.5185,21.5185,0,0,1,6.8118-16.455,20.6748,20.6748,0,0,1,16.455-6.3895,21.7605,21.7605,0,0,1,14.768,6.9923,20.4946,20.4946,0,0,1,6.0272,14.3457ZM383.84,132.49h5.6627v57.6231H383.84Zm51.295,15.0688L411.031,205.0018h-6.0875l6.39-16.1541-16.3347-41.2908h6.209l13.6224,33.875,14.4058-33.875h5.907Zm20.9757,43.4592q-15.5514,0-15.5513-13.2V132.61h6.0273v14.8281h9.8248v5.3088H446.0527v24.1068c0,6.0273,3.2549,9.4639,9.8248,9.4639Zm12.6586-.9037h-5.6628V147.5581H468.77Zm0-47.6791h-5.6628v-9.9463H468.77ZM512,190.1135h-7.1728L493.62,173.0557l-11.09,17.0578h-6.69l14.335-21.759-14.5273-20.7964h6.505l11.5131,16.2143,11.1509-16.2143h6.9923l-14.768,20.9757Z" style="fill:#194e8e"/><path d="M142.98,93.0683V37.3127a35.6279,35.6279,0,0,0-38.5715-36.166A35.2622,35.2622,0,0,0,71.4942,18.1444,35.1409,35.1409,0,0,0,38.58,1.0264c-39.54,0-38.5774,36.16-38.5774,36.16V92.8819H11.396V37.4932A25.0752,25.0752,0,0,1,36.3824,12.3293q1.1-.0039,2.1971.0886A25.0754,25.0754,0,0,1,65.7368,35.222q.0934,1.0729.0946,2.1509V93.0683H77.2242V37.4932a25.01,25.01,0,0,1,24.85-25.1695q1.1688-.0075,2.3344.0942a24.9549,24.9549,0,0,1,27.085,22.6253q.1043,1.1619.1,2.33V93.0683ZM197.5916,1.0252c-40.1441,0-38.5774,36.166-38.5774,36.166V92.8866h11.3326V37.4331a24.955,24.955,0,0,1,24.7937-25.1153q1.2273-.0079,2.4511.1048h9.5842L213.2031,1.03Zm60.7565,0a45.2677,45.2677,0,0,0-45.0872,45.2075v91.9217h11.3927v-91.8a33.8149,33.8149,0,1,1,33.8747,33.7549q-.09,0-.18,0h-9.8248L242.496,91.4415h15.4911a45.2677,45.2677,0,0,0,0-90.4151ZM374.4414,0a48.2218,48.2218,0,1,0,48.2218,48.2218A48.2218,48.2218,0,0,0,374.4426.0012Zm15.19,77.878a12.779,12.779,0,0,1-12.7779-12.78l0-.058a14.0417,14.0417,0,0,1,.4223-3.1947l-8.4941-6.0273L359.44,49.4888,357.21,47.74a8.74,8.74,0,0,1-6.8118,3.2549,8.6191,8.6191,0,1,1,6.9923-13.5021l7.896-3.7374,8.0222-4.0984,3.2549-1.628a4.7047,4.7047,0,0,1,0-1.326,4.9433,4.9433,0,1,1,.6029,2.3512l-3.4354,1.9288-7.5952,4.34-7.6116,4.34a9.039,9.039,0,0,1,.4825,2.8313,8.4406,8.4406,0,0,1-.6028,3.0744l2.5317,1.2057,10.3073,4.7013,9.2822,4.4a12.5369,12.5369,0,0,1,9.0415-3.7976,12.8391,12.8391,0,1,1,0,25.618Z" style="fill:#45505b"/></svg>